<?xml version="1.0" encoding="UTF-8" standalone="no"?>
<!-- Created with Inkscape (http://www.inkscape.org/) -->

<svg
   width="512"
   height="512"
   viewBox="0 0 512 512"
   version="1.1"
   id="svg1"
   inkscape:version="1.3 (0e150ed6c4, 2023-07-21)"
   sodipodi:docname="Half_a_Day_of_Song's_I_Enjoy.svg"
   inkscape:export-filename="Half_a_Day_of_Song's_I_Enjoy.png"
   inkscape:export-xdpi="96"
   inkscape:export-ydpi="96"
   xmlns:inkscape="http://www.inkscape.org/namespaces/inkscape"
   xmlns:sodipodi="http://sodipodi.sourceforge.net/DTD/sodipodi-0.dtd"
   xmlns="http://www.w3.org/2000/svg"
   xmlns:svg="http://www.w3.org/2000/svg">
  <sodipodi:namedview
     id="namedview1"
     pagecolor="#9e315f"
     bordercolor="#000000"
     borderopacity="0.25"
     inkscape:showpageshadow="2"
     inkscape:pageopacity="0.0"
     inkscape:pagecheckerboard="0"
     inkscape:deskcolor="#d1d1d1"
     inkscape:document-units="px"
     showguides="true"
     inkscape:zoom="1.6807536"
     inkscape:cx="271.30687"
     inkscape:cy="228.17146"
     inkscape:window-width="2560"
     inkscape:window-height="1361"
     inkscape:window-x="-9"
     inkscape:window-y="-9"
     inkscape:window-maximized="1"
     inkscape:current-layer="layer1"
     inkscape:export-bgcolor="#9e315fff" />
  <defs
     id="defs1">
    <filter
       id="mask-powermask-path-effect7_inverse"
       inkscape:label="filtermask-powermask-path-effect7"
       style="color-interpolation-filters:sRGB"
       height="100"
       width="100"
       x="-50"
       y="-50">
      <feColorMatrix
         id="mask-powermask-path-effect7_primitive1"
         values="1"
         type="saturate"
         result="fbSourceGraphic" />
      <feColorMatrix
         id="mask-powermask-path-effect7_primitive2"
         values="-1 0 0 0 1 0 -1 0 0 1 0 0 -1 0 1 0 0 0 1 0 "
         in="fbSourceGraphic" />
    </filter>
    <clipPath
       clipPathUnits="userSpaceOnUse"
       id="clipPath7">
      <ellipse
         style="fill:#b7eea9;fill-opacity:0;stroke:#ffffff;stroke-width:14.3542;stroke-dasharray:none;stroke-opacity:1"
         id="ellipse7"
         cx="-429.37888"
         cy="-32.1908"
         inkscape:label="path1"
         rx="151.92719"
         ry="151.9272"
         transform="rotate(-119.81776)" />
    </clipPath>
  </defs>
  <g
     inkscape:groupmode="layer"
     id="layer3"
     inkscape:label="Symbol">
    <path
       sodipodi:type="spiral"
       style="fill:none;fill-rule:evenodd;stroke:#e384ac;stroke-width:9.56949516;stroke-dasharray:76.55596161, 19.1389904, 9.5694952, 19.1389904;stroke-dashoffset:0;stroke-opacity:1"
       id="path1"
       sodipodi:cx="298.08057"
       sodipodi:cy="308.79007"
       sodipodi:expansion="1"
       sodipodi:revolution="3"
       sodipodi:radius="137.76764"
       sodipodi:argument="-21.991148"
       sodipodi:t0="0"
       d="m 298.08057,308.79007 c -6.90745,0 -3.40789,-9.31111 0,-11.48064 9.23518,-5.87929 20.12993,2.58572 22.96127,11.48065 5.0646,15.91095 -7.78956,31.22237 -22.96129,34.4419 -22.26514,4.72479 -42.5126,-13.01666 -45.92253,-34.44194 -4.54489,-28.55652 18.24582,-53.87926 45.92258,-57.40315 34.82838,-4.43447 65.28385,23.47445 68.88379,57.40322 4.36,41.09229 -28.70248,76.71012 -68.88387,80.36442 -47.35238,4.30646 -88.14994,-33.93008 -91.84505,-80.36451 -4.26614,-53.6104 39.1574,-99.59881 91.84516,-103.32568 59.86718,-4.2347 111.05402,44.38453 114.8063,103.3258 4.2095,66.12319 -49.61154,122.51385 -114.80644,126.28693 C 225.7018,439.26591 164.10335,380.2386 160.31293,308.78999"
       transform="matrix(-0.41568999,0.72531422,-0.72531422,-0.41568999,614.95634,282.91118)"
       clip-path="url(#clipPath7)" />
    <path
       style="fill:none;fill-rule:evenodd;stroke:#e384ac;stroke-width:8;stroke-dasharray:96, 8;stroke-dashoffset:0;stroke-opacity:1"
       d="m 345.41635,255.79385 c 0,0 37.26115,-9.94312 36.29324,-44.02787 -0.96642,-34.03219 39.2681,-39.2681 39.2681,-39.2681"
       id="path2"
       sodipodi:nodetypes="csc" />
    <path
       style="fill:none;fill-rule:evenodd;stroke:#e384ac;stroke-width:8;stroke-dasharray:96, 8;stroke-dashoffset:0;stroke-opacity:1"
       d="m 244.53317,207.64495 c 0,0 -29.82693,-23.80504 -1.78492,-47.00273 27.29924,-22.58323 -2.37988,-55.33232 -2.37988,-55.33232"
       id="path3"
       sodipodi:nodetypes="csc" />
    <path
       style="fill:none;fill-rule:evenodd;stroke:#e384ac;stroke-width:8;stroke-dasharray:96, 8;stroke-dashoffset:0;stroke-opacity:1"
       d="m 123.8445,307.60567 c 0,0 -9.51888,-24.43159 -47.10694,-18.39892 -41.025862,6.58441 -50.386971,-16.86958 -50.386971,-16.86958"
       id="path4"
       sodipodi:nodetypes="csc" />
    <path
       style="fill:none;fill-rule:evenodd;stroke:#e384ac;stroke-width:8;stroke-dasharray:96, 8;stroke-dashoffset:0;stroke-opacity:1"
       d="m 196.34048,270.11693 c 0,0 -20.22902,-4.75977 -17.84914,-22.6089 2.37989,-17.84914 -15.46925,-22.60891 -15.46925,-22.60891"
       id="path5"
       sodipodi:nodetypes="csc" />
    <path
       style="fill:none;fill-rule:evenodd;stroke:#e384ac;stroke-width:8;stroke-dasharray:96, 8;stroke-dashoffset:0;stroke-opacity:1"
       d="m 299.2939,247.29144 c 0,0 19.23272,-10.90707 10.35777,-27.88716 -8.87493,-16.98011 9.05759,-26.33976 9.05759,-26.33976"
       id="path6"
       sodipodi:nodetypes="csc" />
  </g>
  <g
     inkscape:label="Circle"
     inkscape:groupmode="layer"
     id="layer1">
    <path
       id="ellipse8"
       style="fill:#b7eea9;fill-opacity:0;stroke:#e384ac;stroke-width:12;stroke-opacity:1"
       inkscape:label="path1"
       d="m 260.02966,129.05313 c 68.28069,2.12811 122.97991,58.14964 122.97991,126.94687 0,70.14545 -56.86412,127.00958 -127.00957,127.00958 -70.14545,0 -127.00957,-56.86413 -127.00957,-127.00958 0,-66.10009 50.49442,-120.40658 115.01436,-126.45056"
       sodipodi:nodetypes="csssc" />
  </g>
</svg>
